<svg version="1" xmlns="http://www.w3.org/2000/svg" width="666.667" height="666.667" viewBox="0 0 500.000000 500.000000"><path d="M125.8 38.8c-1.7 2.9-1.7 3 1.2 6.7 1.7 2.1 3 3.9 3 4.1 0 .2-2.1-.3-4.7-1.1-5.2-1.6-5.2-1.7-9.5 4.6-1.7 2.4-1.7 2.4-1.7-2.7l-.1-5.1-4.5-1.3c-2.5-.7-4.5-1.6-4.5-2 0-.4 1.8-1.2 4-1.9 3.9-1.2 5.7-3.3 2.3-2.7-1 .2-3.8.7-6.3 1.1-7.3 1.2-7.7 1.3-16.8 4.1C79 45.4 59 54.5 59 55.8c0 1.9 1.3 1.9 6.1.1l5-1.9-3.1 4.6-3.2 4.6 3.1 3.8c1.7 2.1 3.1 4.1 3.1 4.3 0 .3-1.7-.1-3.7-.9-5.5-1.9-5.8-1.8-9.2 2.8L54 77.4l-.1-4.2c-.2-6.5-.2-6.6-2.9-7.3-5-1.4-6.2-.8-13.9 7C25.1 85 16.6 97.6 10.3 113c-3.4 8.3-7.4 21.6-6.6 22.3.2.3 2.2-.2 4.3-1.1l4-1.5-.3-5.5-.4-5.5 2 2.4c1.1 1.3 2.5 3.3 3.3 4.3 1.3 1.9 1.6 1.9 6.4.4 2.7-.9 5-1.5 5-1.4 0 .1-1.1 1.7-2.5 3.6-3.1 4.2-3.1 5.1 0 8.8 3.1 3.7 3.1 4.2.2 3.5-7.2-1.7-7.5-1.6-9.9 2.1-1.3 2-2.6 3.6-2.9 3.6-.4 0-.7-1.7-.7-3.8 0-2-.1-4.2-.1-4.8-.1-1.1-8.1-3.7-8.9-2.9-.9.8-2.2 9.9-2.8 19l-.6 9.5 2.7-1c4.4-1.7 4.7-1.2 1.9 3l-2.7 4.1 3.2 4.4 3.2 4.5-2.6-1c-5.3-2-5.7-1.6-4.9 5.7.7 7.1.7 7.5 2.5 16.3 1.4 7.4 4.9 18 5.9 18 .4 0 .6-2.4.4-5.3l-.4-5.2 2.4 2.7c1.4 1.6 2.9 3.5 3.3 4.3.8 1.3 1.5 1.2 6-.4l5.2-1.9-1.6 2.7c-.9 1.4-2.3 3.3-3 4.2-1.1 1.3-.9 2.2 1.7 5.7 1.6 2.3 3 4.3 3 4.6 0 .2-2.1-.4-4.7-1.2-4.5-1.5-4.7-1.5-6.4.7-1.7 2.1-1.7 2.4.9 7.9 4.8 10 10.2 19.4 14.4 24.8l4.1 5.2 4-1.4c5.8-2 6-1.8 3 2.7-1.8 2.8-2.4 4.5-1.7 5.4.5.7 2 2.8 3.3 4.6 1.9 2.5 2.1 3.1.8 2.6-.9-.3-1.7-.4-1.7-.1 0 .4 12.8 18.1 14.6 20.3.2.2 2.7-.3 5.6-1.1 4.8-1.3 5.3-1.7 5.3-4.4.1-4.6-.3-5.1-5.2-6.3-2.5-.7-4.2-1.5-3.8-1.9.3-.4 1-.7 1.3-.7.4-.1 2.3-.7 4.2-1.4 3.4-1.3 3.5-1.4 3.2-6.5l-.3-5.1 3.4 3.9 3.3 3.9 4.7-1.6c2.6-.9 4.7-1.3 4.7-1 0 .3-1.1 2.1-2.5 3.9-3 4-3 4.2 0 7.9 2.3 2.8 2.5 2.9 6.2 1.6 9.8-3.3 24.1-8.4 26.8-9.6 1.7-.7 5.3-2.1 8-3.1 6.3-2.2 5.8-1.7 6.1-6.3.2-3.8 0-4.1-3.4-5.1-2.1-.6-4.4-1.4-5.2-1.7-.9-.3.2-1.1 3-2.2 4.5-1.6 4.5-1.7 4.8-7l.3-5.3 3.5 4 3.5 4.1 4.4-1.9c2.5-1.1 4.5-1.6 4.5-1.2 0 .4-1.1 2.4-2.5 4.5-2.6 3.8-2.5 5.8.7 8.5 1.8 1.5 45.2-20 44.9-22.3 0-.6-.5-1.1-1.1-1.1-.5-.1-1.2-.3-1.5-.4-.8-.4-2.4-.7-4.1-.9-2.5-.2-.8-1.6 3.5-3.1l4.1-1.3v-11l2.2 2.9c4.4 5.7 4.5 5.7 8.1 4.3 5.9-2.5 7-2.1 4 1.4-1.8 1.9-1.7 2 .7.7 4.7-2.4 41.7-26.1 43.8-28 1.2-1.1 2.4-2 2.8-2 .4 0 3.3-1.7 6.5-3.7 5.1-3.3 5.8-4.2 6.4-7.9.3-2.2.8-5.3 1.1-6.8.4-2.2 0-2.9-1.7-3.3l-2.2-.6 2.3-1.7c3-2.3 3-2.5 3.5-21.5.4-20.5.3-21.2-4.4-22.5-3.9-1.1-3.4-1.4-8.3 5.2-1.7 2.3-1.7 2.2-1.8-2.8v-5.1l-4.5-1.3c-2.5-.7-4.5-1.6-4.5-1.9 0-.4 1.9-1.4 4.3-2.2l4.2-1.6-.1-5.3-.1-5.3 2.8 3.4c1.6 1.9 2.9 3.7 2.9 4.1 0 1.2 2.4.9 4.3-.5 1.6-1.1 1.6-1.7-.7-8.3-5.2-15.3-13.4-28.1-19.1-29.8-1.6-.5-2.6.3-4.5 3.3-1.3 2.2-2.7 3.8-3 3.6-.3-.2-.5-2.4-.5-4.9.1-4.5-.5-5.2-5.2-5.7-.5-.1-1.7-.6-2.8-1.2-1.8-.9-1.5-1.2 2.9-2.7l4.9-1.6-6.4-5.5c-3.5-3-8.8-7.3-11.8-9.4l-5.4-3.9-2.3 3c-3 3.7-3 4.6.1 8.2 1.4 1.7 2.5 3.2 2.5 3.5 0 .4-2.1 0-4.6-.8l-4.5-1.3-2.7 3.8c-1.5 2.2-3 3.9-3.3 4-.3 0-.6-1.5-.6-3.3-.1-6.4-.2-6.4-4.9-7.6-5.1-1.3-4.9-2.2.8-4 3.7-1.2 3.8-1.3 3.4-6.2-.1-2.7 0-4.9.3-4.9s1.9 1.6 3.4 3.5c3 3.8 3.8 4 8.1 2.2l3-1.3-6.8-4.3c-21.9-13.8-43.9-21.4-63.1-22l-9-.2-1.7 2.9zm30.5 8.2l2.8 3.9L164 49l5-2-3 4.8c-2.8 4.5-2.8 4.8-1.2 6.7 1 1.1 2.4 2.9 3.2 3.9 1.6 2.1 2.2 2.1-6.4 0-1.9-.4-2.9.2-5.4 3.6l-3.1 4.2-.3-5.3-.3-5.3-5-1.4-4.9-1.4 5-1.9 5.1-1.9-.1-5c-.1-2.8 0-5 .3-5 .4 0 1.9 1.8 3.4 4zM97 70.2c0 1.6 3.9 1.7 7.3.3 5.1-2.1 5.2-2 1.8 2.9l-3.1 4.4 3 3.7c1.7 2.1 2.9 4 2.7 4.2-.2.2-2.3-.3-4.5-1.1l-4.2-1.5-3.5 4.6-3.5 4.6V81.4l-5.2-1.5-5.3-1.6 5.1-1.7 5.1-1.7-.2-5.5-.2-5.5 2.3 2.8c1.3 1.5 2.3 3.1 2.4 3.5zm45.4 15.4c5.7-2.4 6-2 2.8 2.7l-3 4.2 2.9 3.5c1.6 1.9 2.9 3.7 2.9 4.1 0 .4-2.1.1-4.7-.7-2.5-.8-4.7-1.3-4.8-1.2-.2.2-1.4 2-2.8 4.1-2.8 4.2-3.7 3.8-3.5-1.7.1-3.4-.5-5-2-5.2-3.7-.6-7.2-1.8-7.2-2.4 0-.4 2-1.4 4.5-2.1l4.5-1.3-.3-5.5-.4-5.5 3.6 4.3 3.7 4.3 3.8-1.6zM37.5 92.3c1.2 1.7 1.6 1.8 5.9.3 2.6-.9 4.9-1.6 5.1-1.6.3 0-.8 1.9-2.4 4.2l-2.9 4.3 3 3.8c1.7 2.1 2.9 4 2.7 4.2-.2.1-2.4-.4-4.9-1.2-4.3-1.5-4.5-1.5-6 .8-.8 1.3-2.3 3.2-3.2 4.3-1.7 2-1.7 2-1.8-3 0-5 0-5.1-4-6.3-5.5-1.6-5.7-2.7-.8-4.3l4.3-1.3v-5.4l-.1-5.3 1.9 2.3c1.1 1.3 2.5 3.2 3.2 4.2zm136.9 5.6l2.7 3.9 5-1.8c2.7-1 4.9-1.6 4.9-1.4 0 .3-1.1 2.2-2.5 4.2s-2.5 4-2.5 4.5c0 .4 1.1 2 2.5 3.5 3.1 3.3 3.2 4.6.3 3.8-6.7-1.9-7.2-1.8-9.7 1.8-2.9 4.3-4 3.9-3.6-1.4.3-3.9.2-4-3.8-5.2-6.1-1.7-6.4-2.4-1.5-3.9 4.3-1.4 4.3-1.4 4.6-6.7.2-2.8.4-5.2.6-5.2.2 0 1.5 1.8 3 3.9zM83.1 107l4.8-1.8-1.4 2.7c-.9 1.4-2.1 3.4-2.8 4.3-1.2 1.9-1.3 1.8 3 7.6l2.3 3-4.7-1.4c-6.1-1.8-5.8-1.9-8.3 2.1-2.7 4.4-3.6 4.4-3.7 0-.1-5.3-.9-6.4-5.3-7.1-2.2-.4-4-1-4-1.4 0-.5 1.9-1.5 4.3-2.3 4.1-1.3 4.2-1.5 4.4-5.8 0-2.4.2-4.8.2-5.3.1-.5 1.5.9 3.3 3.2l3.1 4.1 4.8-1.9zm133.8 9c.5 0 2.7-.7 5-1.5 2.2-.8 4.1-1.2 4.1-.9 0 .2-1.2 2.2-2.6 4.4l-2.6 3.9 3.1 3.8c1.7 2 2.9 3.8 2.7 4-.1.2-2.4-.3-4.9-1.1l-4.7-1.4-3 4.6-3 4.5-.1-3.4c-.2-7.2-.2-7.2-5.2-8.9l-4.8-1.7 2.8-1.1c1.5-.5 3.6-1.3 4.6-1.6 1.3-.4 1.7-1.7 1.7-6.2v-5.7l3 4.1c1.7 2.3 3.4 4.2 3.9 4.2zm-94.6 5.7c2.6-.9 4.7-1.3 4.7-1 0 .3-1.1 2.1-2.5 3.9-1.4 1.8-2.5 3.6-2.5 3.9 0 .4 1.4 2.5 3.1 4.6 3.4 4.3 3.1 4.6-3 2.4l-4.1-1.4-2.7 4c-1.4 2.1-2.8 3.7-3.1 3.4-.4-.3-.7-2.4-.8-4.6-.1-2.2-.4-4.2-.7-4.5-.3-.3-2.6-1.1-5.2-1.8l-4.7-1.1 5.1-1.9 5.1-1.8v-10.3l3.3 3.9 3.3 3.9 4.7-1.6zm34.1 16.1c.2.1 2.2-.5 4.6-1.3 2.4-.8 4.5-1.4 4.6-1.2.2.2-.8 2-2.2 4.1-2.8 4.1-3 3.2 2.2 10.3l1.6 2.3-4.8-1.5c-5.4-1.6-5.3-1.7-9.6 4.6l-1.7 2.4-.2-4.5c-.1-2.5-.1-4.8-.1-5.1.1-.4-1.9-1.2-4.3-1.9-2.5-.7-4.5-1.6-4.5-2 0-.4 1.8-1.3 4-2 4.2-1.4 4.3-1.7 4-8.5l-.2-4 3.2 4c1.7 2.2 3.3 4.1 3.4 4.3zM57.6 145c.3 0 2.1-.7 4.1-1.5 4.9-2.1 5.8-1.9 4.1.7-4.4 6.8-4.4 6.3-.9 10.7 1.8 2.3 3.1 4.1 2.9 4.1-.1 0-2.5-.7-5.3-1.5-2.7-.9-5.1-1.2-5.3-.7-.5 1.6-5.2 7.6-5.3 6.9-.1-.4-.3-2.1-.4-3.7-.1-1.7-.3-3.7-.4-4.5 0-.9-1.9-1.9-4.6-2.6-5.2-1.3-5-2.4.5-4l4-1.2v-11.1l3.1 4.2c1.7 2.3 3.3 4.2 3.5 4.2zm143 6c2.4-1.1 4.4-1.6 4.4-1.2 0 .4-1.1 2.4-2.4 4.3l-2.5 3.6 3.2 4.3 3.1 4.3-2.7-.6c-1.5-.4-3.8-1-5.1-1.3-2.1-.5-2.9.1-5.3 3.7l-2.8 4.3-.5-5.4-.5-5.3-5-1.5-5-1.4 5.2-2 5.2-1.9-.5-5.2-.4-5.2 3.6 4.2 3.5 4.2 4.5-1.9zm-100 7.4c5.1-2.1 5.8-1.4 2.8 2.9l-2.6 3.9 3.3 4 3.2 4.1-2.6-.7c-1.5-.3-3.8-.9-5.1-1.2-2-.5-3 .1-5.5 3.6l-3.1 4.3v-4.5c0-5.1-1.1-6.5-5.9-7.4-4.2-.9-4.7-2-1.3-2.9 5.7-1.4 7-2.9 6.5-8.2l-.4-4.8 3.6 4.2 3.6 4.2 3.5-1.5zm131.4 5.1c2.8 3.9 3.6 4.1 8.7 2 2-.8 3.7-1.4 3.9-1.3.1.2-1 2.2-2.6 4.4l-2.8 4.2 3 3.6c1.7 2.1 2.8 3.9 2.6 4.1-.2.2-2.4-.2-4.9-.9l-4.5-1.4-3 4.7-2.9 4.6-.3-5.7-.3-5.6-5.1-1.3-5.2-1.2 5.3-2.1 5.2-2.1-.4-4.8c-.2-2.6-.1-4.7.2-4.7.3 0 1.7 1.6 3.1 3.5zm-99.1 7.1c2.6 3.7 2.8 3.8 10 1.5 3.1-1 3.2-.9 1.9.7-.8.9-2.2 2.9-3.1 4.3-1.5 2.6-1.5 2.8 1.5 6.8l3 4.2-2.8-.7c-1.6-.4-3.8-1-4.9-1.4-1.6-.6-2.6.1-5.2 3.8l-3.3 4.6-.1-5c-.1-2.7-.1-5.2 0-5.6 0-.3-2.2-1.2-5-1.8l-5-1.2 2.7-1.4c1.4-.8 3.2-1.4 4-1.4 2 0 3.2-3.1 2.7-7.3-.5-4.6.5-4.7 3.6-.1zm-91.4 9c2.7-.9 5-1.6 5.2-1.6.1 0-1.1 2-2.9 4.4l-3.1 4.5 3.2 4c3.6 4.5 3.3 4.8-2.7 2.7l-4.1-1.5-3 4.7-3.1 4.7-.1-4.5c-.1-2.5-.2-5.1-.2-5.8.1-.6-.4-1.2-1.1-1.2-.6 0-2.9-.5-5.1-1.1l-4-1.1 5-2.2 4.9-2.2-.2-5-.2-4.9 3.3 3.9 3.4 3.9 4.8-1.7zm130.9 5.8l2.6 3.5 4.8-1.4c2.6-.8 4.8-1.5 5-1.5.2 0-1 1.9-2.7 4.3l-3 4.4 3 3.4c1.6 1.9 2.9 3.7 2.9 4.1 0 .3-2.1 0-4.7-.8-4.6-1.4-4.8-1.4-6.5.8-1 1.3-2 3.1-2.4 4-.8 2.6-2.6 2.2-2.4-.5.5-6.1 0-7.7-2.7-8.3-1.6-.4-3.7-1.1-4.7-1.7-1.8-.9-1.5-1.2 2.5-2.6 4.4-1.7 4.4-1.7 4.4-6.4 0-2.6.2-4.7.6-4.7.4 0 1.8 1.6 3.3 3.4zm-100.5 5.3c3 5.2 3.7 5.6 7.8 4.2 2.1-.7 4.5-1.8 5.3-2.4 1.5-1 1.3-.6-3.4 6.7-1.4 2.1-1.2 2.6 1.5 6.2 1.6 2.2 2.7 4.1 2.6 4.3-.2.2-2.4-.4-4.8-1.2-4.3-1.6-4.4-1.5-5.9.6-.8 1.3-2.3 3.2-3.2 4.3-1.7 2-1.7 1.9-1.8-3.1v-5.1l-5-1.3c-5.3-1.4-5.7-2.3-1.1-3.2 4.3-.9 5.9-3 5.6-7.6-.3-4.3.7-5.3 2.4-2.4zm146.4 11.7c5.8-2 6-1.8 3.1 2.6l-2.7 4.1 3.2 4.4 3.2 4.4-4.2-1.4c-6-2.1-6.5-2-9.3 2.7-1.4 2.4-2.6 3.8-2.7 3.3-.1-.6-.2-2.6-.3-4.5-.3-4.7-1-5.7-4.9-6.5-5.2-1.2-5.3-1.7-.6-3.5 4.7-1.9 4.4-1.3 4.8-10.4.1-1.5.8-1 3.2 2.1l3.2 4.1 4-1.4zm-98 6.5l4.7-1.9-2.5 4c-3.1 4.9-3.1 5.3.2 9.7l2.8 3.6-2.8-.6c-1.5-.4-3.7-1-5-1.3-1.9-.4-2.8.2-5 3.5-1.5 2.3-2.9 4.1-3.2 4.1-.2 0-.4-2.1-.3-4.6.1-5.3-.2-5.6-6.2-7.4l-4.5-1.3 5-1.7 5-1.7-.1-5.3v-5.4l3.5 4.1 3.6 4.1 4.8-1.9zm31.3 12.9l2.8 3.9 4.8-1.9c2.6-1 4.8-1.5 4.8-1.2 0 .3-1.1 2-2.5 3.8-3.1 4.1-3.1 4.1.1 8.3 3 4 2.8 4.8-1 3.3-4.5-1.7-6.3-1.2-8.6 2.5-2.8 4.5-3.6 4.4-3.5-.3.2-5.5-.2-5.9-5.8-7.3l-5.1-1.2 5.3-2 5.3-2-.4-4.9c-.1-2.6 0-4.8.4-4.8s1.9 1.7 3.4 3.8zm-99.7 6.7c2.7 4 3.2 4.1 9 2 4.5-1.6 4.6-1.4.5 4.1l-2.3 3.1 3.1 3.7c1.7 2 2.8 3.9 2.5 4.2-.2.3-2.3-.2-4.6-.9-4.4-1.6-4-1.8-9.6 5.8-1.3 1.8-1.4 1.6-1.5-3.5v-5.5l-5.2-1.6-5.3-1.5 5.4-1.8 5.3-1.8-.5-4.9c-.3-2.7-.2-4.9.1-4.9.4 0 1.8 1.6 3.1 3.5zm44.9 17.9c1.5-.4 3.1-1.1 3.6-1.5.6-.5 1.6-.9 2.3-.9.9 0 .5 1.3-1.2 4-1.4 2.2-2.5 4.3-2.5 4.8 0 .4 1.4 2.4 3.1 4.5l3.1 3.8-2.8-.7c-1.6-.4-3.8-1.1-4.8-1.7-1.7-.8-2.5-.4-4.8 2.4-1.5 1.8-2.8 3.7-2.8 4.1 0 .4-.4.8-.8.8s-.8-1.5-.8-3.3c-.2-6.6-.2-6.6-4.9-7.8-5.2-1.3-5-2.4.6-4.1 3.9-1.1 4-1.3 3.9-5.2-.3-6.3-.1-6.4 3.1-2.4 2.6 3.2 3.5 3.7 5.7 3.2zM354.9 36.4c-.2.2-2 .6-3.9.9-14 1.9-32.1 9.4-50 20.5-5.8 3.7-10.9 7-11.5 7.4-9.1 7.3-12.5 10.2-12.5 10.7 0 .3.9 1.9 2.1 3.6 1.1 1.6 3.6 6.1 5.6 10 1.9 3.8 3.7 7.1 3.8 7.3.2.2 3.2-1.3 6.7-3.3 11.5-6.5 40.4-20.4 52.9-25.4 20.6-8.2 45.9-15.8 65.1-19.7 4.9-1 8.5-2.1 8-2.5-1.4-1.5-23.6-7.3-32.2-8.6-4-.6-33.6-1.4-34.1-.9zM458.8 79.5c-.2.1-3.6.6-7.6.9-27.9 2.6-62.5 11.5-92.4 23.7-20.1 8.3-60.4 29.1-59.4 30.8 1 1.5 1.9 15.6 1.9 28.3-.1 7.6.1 13.8.3 13.8.3 0 2.3-1.2 4.7-2.7 15.3-9.7 48.5-27.4 61.7-32.8 3.6-1.4 7.9-3.3 9.7-4.1 7.1-3.2 35.6-12.1 44.3-13.8 1.4-.2 4.5-.9 7-1.4 2.5-.6 6.3-1.3 8.5-1.6 2.3-.4 5-.8 6.2-1 1.2-.3 5.3-.8 9-1.1 3.7-.4 7.9-.8 9.2-1 1.4-.3 8.5-.5 15.8-.6 13.2-.1 13.4-.1 12.7-2.2-1.6-5.2-10.8-21.8-15.7-28.2-5.4-7-5.4-7-10.5-7.1-2.8-.1-5.2-.1-5.4.1z"/><path d="M260.7 135.3c-.3.7.2 2.2.9 3.2 1.4 1.8 1.5 1.8 1.2-1.3-.2-3.3-1.2-4.2-2.1-1.9zM461.5 155.1c-10.6 1.1-21.2 2.7-28.5 4.4-1.4.3-3.6.8-5 1.1-6.4 1.3-24.3 7-34.6 10.9-21.1 8.2-53 24.9-76.4 40-1.9 1.2-6.9 4.4-11 7.1-4.1 2.6-15.4 9.9-25 16.2-58.6 38.5-70.3 45.6-101 61-26.7 13.5-60.6 27.3-87.3 35.7-4.8 1.6-8.7 3.1-8.7 3.5 0 .4 6.5 7.3 14.4 15.4l14.3 14.6 10.9-3.9c59.9-21.4 96.9-40.7 168.4-87.9 26.6-17.6 48.9-32 54.5-35.2 28.4-16.6 44-24.5 60.5-30.9 16.3-6.4 29.2-9.8 52.5-13.7 2.2-.4 11.9-.7 21.5-.9l17.4-.1.7-3.2c.4-1.8.7-10.2.7-18.7.1-15.3.1-15.5-2.1-15.7-6.9-.5-30.2-.3-36.2.3zM474.8 229.5c-.2.2-3.2.6-6.8.9-7.5.7-12.4 1.3-16 2.1-1.4.3-3.4.7-4.5.9-10.6 2-31.4 9.7-46.5 17.2-21.3 10.5-37.4 20.2-78.5 47.2-54.2 35.7-75.8 48.8-104 63.2-18.9 9.6-42.7 20.3-61.2 27.4l-12.2 4.8 3.2 2.7c5.1 4.4 28 21.7 30.4 23 2.3 1.2 5.7.1 18.8-5.8 2.2-1 7.8-3.6 12.5-5.7 9.5-4.2 38.7-19 49.5-25.1 20.7-11.7 39.5-23.4 80.5-50.5 60.4-39.8 85.6-53.3 112.3-60.2 5.4-1.4 11.1-2.7 12.7-2.8 2.5-.2 3.6-1.5 8.9-10.8 7.2-12.6 14.3-27.2 13.6-27.9-.6-.5-12.2-1-12.7-.6zM132.2 275c-1.4 2.3-1.4 2.3 2.6.9 1.8-.6 2.9-1.5 2.6-2-.9-1.6-3.9-1-5.2 1.1zM71.9 297.2c-1 1.8-.9 2 .6 1.4.9-.3 2.8-.9 4.1-1.2 2.9-.8 2.2-2.4-1.1-2.4-1.5 0-2.9.9-3.6 2.2zM418 326.8c-15 8.5-28.6 17.2-77 49.1-8 5.3-15.3 10-16.3 10.6-.9.5-7.3 4.5-14.1 8.7-21.7 13.7-41.4 24.7-67.4 37.5-21.8 10.9-25 12.7-23.5 13.8 2.4 1.6 17.3 10.3 24.6 14.4l5.9 3.3 8.1-4.7c4.4-2.6 9.6-5.6 11.5-6.7 1.9-1 9.6-5.8 17.1-10.5 49.5-31.3 95.8-69.9 131.1-109.2 4.1-4.6 8.1-9 8.8-9.7 2.4-2.5-.1-1.5-8.8 3.4z"/></svg>