<svg xmlns="http://www.w3.org/2000/svg" width="93.63" height="146.53" viewBox="0 0 93.63 146.53">
  <defs>
    <style>
      .a {
        fill: none;
      }

      .b {
        fill: #006;
      }

      .c {
        fill: #fff;
      }

      .d {
        fill: #ffdf1b;
      }
    </style>
  </defs>
  <g>
    <rect class="a" width="93.63" height="146.53"/>
    <g>
      <g>
        <g>
          <g>
            <rect class="b" x="7.92" y="3.68" width="77.57" height="76.89"/>
            <path class="c" d="M85,4.18v75.9H8.42V4.18H85m1-1H7.42v77.9H86V3.18Z"/>
          </g>
          <rect class="d" x="23.67" y="23.44" width="46.07" height="14.14"/>
          <rect class="d" x="23.67" y="46.47" width="46.07" height="14.14"/>
        </g>
        <g>
          <path class="c" d="M16.51,98.62c.72,0,.8,0,.8-.57V96.69c0-1.53-.08-1.62-1-1.78l-.42-.06c-.16-.12-.14-.49,0-.56.87,0,1.56.07,2.27.07s1.4,0,2.27-.07a.38.38,0,0,1,0,.56l-.42.06c-1,.16-1.05.25-1.05,1.78v5c0,1.53.09,1.64,1.05,1.78l.51.06c.15.11.13.49,0,.56-.93,0-1.66-.07-2.35-.07s-1.4,0-2.27.07c-.18-.07-.2-.45,0-.56l.42-.06c1-.16,1-.25,1-1.78V99.91c0-.55,0-.58-.8-.58H12.6c-.75,0-.8,0-.8.58v1.76c0,1.53.09,1.67,1,1.78l.6.06c.15.11.13.49,0,.56-1,0-1.75-.07-2.44-.07s-1.4,0-2.09.07c-.18-.07-.2-.45,0-.56l.24-.06c.93-.25,1-.25,1-1.78v-5c0-1.53-.08-1.64-1-1.78l-.51-.06a.38.38,0,0,1,0-.56c1,0,1.65.07,2.36.07s1.4,0,2.18-.07a.38.38,0,0,1,0,.56l-.33.06c-.94.18-1,.25-1,1.78v1.36c0,.57.09.57.8.57Z"/>
          <path class="c" d="M27,96.69c0-1.53-.11-1.58-1.05-1.78l-.31-.06c-.15-.12-.13-.49.05-.56.75,0,1.44.07,2.15.07s1.4,0,2.27-.07c.18.07.2.44.05.56l-.43.06c-.95.16-1,.25-1,1.78v3.13c0,2.23.73,3.74,2.89,3.74,2,0,2.86-1.51,2.86-3.71V97.78c0-2.22-.13-2.73-1.08-2.87l-.47-.06a.38.38,0,0,1,0-.56c.71,0,1.23.07,1.87.07s1.13,0,1.84-.07a.38.38,0,0,1,0,.56l-.67.06c-.58.07-.76.67-.76,2.87V100c0,2.84-1.31,4.33-4.13,4.33a4.47,4.47,0,0,1-3.16-.93,4.27,4.27,0,0,1-.95-3.13Z"/>
          <path class="c" d="M47.17,100.09a13.73,13.73,0,0,0,.8,1.36,10.39,10.39,0,0,0,.91-1.56L50,97.76a18,18,0,0,0,1.53-3.47c.49,0,.94.07,1.29.07.54,0,1.18,0,1.83-.07a.37.37,0,0,1,.06.56l-.49.06c-1,.14-1.06.56-1.06,1.87,0,2.36,0,4.24.11,5.58,0,.49,0,1,.73,1.09l.65.06a.38.38,0,0,1,0,.56c-.8,0-1.66-.07-2.22-.07s-1.33,0-2,.07c-.15-.11-.17-.47,0-.56l.49-.06c.71-.09.71-.27.71-1.16V97.16a1.69,1.69,0,0,0-.06-.65,15.27,15.27,0,0,0-1,1.69l-1.36,2.56c-.17.33-1.33,2.64-1.57,3.35a.38.38,0,0,1-.43,0,22.24,22.24,0,0,0-1.31-3l-1.44-2.8a9.66,9.66,0,0,0-.89-1.74,16.13,16.13,0,0,0-.13,2.23c0,.89-.05,1.82-.05,2.91s0,1.62.65,1.69l.73.06c.16.09.13.47,0,.56-.58,0-1.22-.07-1.82-.07s-1.16,0-1.85.07a.38.38,0,0,1,0-.56l.47-.06c.73-.11.8-.34.91-1.11.18-1.21.31-4.78.31-6.29,0-.72-.24-1-1-1.14l-.53-.06c-.14-.12-.16-.47,0-.56.6,0,1.11.07,1.71.07a15,15,0,0,0,1.63-.07c0,1,.39,1.69,1.15,3.16Z"/>
          <path class="c" d="M62.72,100.56c-.52,0-.58,0-.76.53l-.51,1.42c-.24.71-.18.8.24.89l.6.11c.18.11.16.51-.06.56-.56,0-1.14-.07-1.76-.07s-1.15,0-1.55.07a.37.37,0,0,1-.05-.56l.51-.11c.69-.15.94-.4,1.38-1.47l2.13-5.11A6.78,6.78,0,0,0,63.47,95a2,2,0,0,0,.94-.85c.17-.06.31,0,.35.11s.45,1.38,1,2.74l2,5.31c.26.73.46,1,1.26,1.18l.36.06a.33.33,0,0,1-.07.56c-.58,0-1.09-.07-1.84-.07s-1.45,0-2,.07a.33.33,0,0,1-.05-.56l.45-.06c.58-.09.55-.23.29-.92l-.54-1.44c-.17-.51-.24-.53-.75-.53Zm1.75-.71c.58,0,.65,0,.4-.69l-.69-1.89a3.65,3.65,0,0,0-.33-.8h0a4.72,4.72,0,0,0-.36.75l-.8,2c-.24.6-.2.65.29.65Z"/>
          <path class="c" d="M82.66,97.78c0-2.22-.13-2.78-1-2.87L81,94.85a.38.38,0,0,1,0-.56c.83,0,1.34.07,2,.07s1.13,0,1.85-.07a.39.39,0,0,1,0,.56l-.67.06c-.58.07-.76.67-.76,2.87v3.73c0,.45,0,2.25.07,2.58a.44.44,0,0,1-.46.2c-.25-.31-.69-.78-2.07-2.27l-3.38-3.6c-.84-.89-1.42-1.46-1.71-1.71-.09,0-.09.25-.09.94v2.93c0,2.22.13,2.8,1,2.87l.71.06a.37.37,0,0,1,0,.56c-.82,0-1.33-.07-2-.07s-1.06,0-1.84.07a.37.37,0,0,1,0-.56l.66-.06c.58-.07.76-.67.76-2.87v-4c0-.73,0-1-.47-1.38a2.79,2.79,0,0,0-.82-.31l-.33-.06a.36.36,0,0,1,0-.56c.85.07,1.45.07,1.91.07a6.06,6.06,0,0,0,.89-.07A13.39,13.39,0,0,0,78.42,97l2.09,2.16c.49.49,1.78,1.89,2,2.07.13,0,.13-.36.13-.89Z"/>
          <path class="c" d="M10.11,116.31c0-1.45,0-1.82-.53-1.89L9,114.33c-.18,0-.22-.49,0-.55,1.22-.09,2.47-.14,3.69-.14,2.06,0,4.31.34,4.31,2.67a2.57,2.57,0,0,1-2,2.38.26.26,0,0,0,0,.33,13.53,13.53,0,0,0,2.82,3.56A2,2,0,0,0,19,123a.27.27,0,0,1,0,.36,3.34,3.34,0,0,1-.93.11,3.48,3.48,0,0,1-3.11-1.67c-.56-.71-1.16-1.69-1.63-2.4a1,1,0,0,0-.88-.35c-.58,0-.63,0-.63.35V121c0,1.53.09,1.64,1,1.78l.51.07a.37.37,0,0,1,0,.55c-.93,0-1.66-.07-2.35-.07s-1.4,0-2.18.07a.32.32,0,0,1,0-.55l.33-.07c1-.2,1-.25,1-1.78Zm1.69,1.62c0,.56,0,.56,1.11.56,1.45,0,2.2-.58,2.2-2.11a2.08,2.08,0,0,0-2.33-2.09c-.82,0-1,0-1,.62Z"/>
          <path class="c" d="M24.35,116c0-1.53-.09-1.62-1-1.78l-.42-.06c-.16-.11-.14-.49,0-.56.87,0,1.56.07,2.27.07s1.4,0,2.26-.07c.18.07.2.45.05.56l-.42.06c-1,.16-1.05.25-1.05,1.78v5c0,1.53.09,1.62,1.05,1.78l.42.07a.37.37,0,0,1-.05.55c-.84,0-1.57-.07-2.26-.07s-1.4,0-2.27.07a.36.36,0,0,1,0-.55l.42-.07c1-.16,1-.25,1-1.78Z"/>
          <path class="c" d="M39.9,121.35c0-1,0-1.15-1-1.33l-.71-.13a.39.39,0,0,1,0-.56c.89,0,1.87.07,2.51.07s1.36,0,1.89-.07a.4.4,0,0,1,.07.56l-.4.09c-.58.13-.67.26-.67,1.22v.62c0,.53,0,.87.36,1,.09.07.09.27,0,.31s-.71.14-1.34.25a12,12,0,0,1-2.22.26A6.43,6.43,0,0,1,33.59,122a4.85,4.85,0,0,1-1.37-3.38,5,5,0,0,1,1.4-3.49,6.47,6.47,0,0,1,4.91-1.75,14,14,0,0,1,3,.44c0,.45.07,1.34.2,2.51a.35.35,0,0,1-.57,0A2.91,2.91,0,0,0,38,114c-2.33,0-3.78,1.8-3.78,4.4S35.88,123,38.57,123c1.18,0,1.33-.22,1.33-1.11Z"/>
          <path class="c" d="M55.19,118c.71,0,.8,0,.8-.58V116c0-1.53-.09-1.62-1.05-1.78l-.42-.06a.38.38,0,0,1,0-.56c.87,0,1.56.07,2.27.07s1.4,0,2.27-.07c.18.07.2.45,0,.56l-.42.06c-1,.16-1,.25-1,1.78v5c0,1.53.08,1.64,1,1.78l.51.07a.37.37,0,0,1,0,.55c-.94,0-1.67-.07-2.36-.07s-1.4,0-2.27.07a.37.37,0,0,1,0-.55l.42-.07c1-.16,1.05-.25,1.05-1.78v-1.76c0-.55-.05-.57-.8-.57H51.28c-.76,0-.8,0-.8.57V121c0,1.53.08,1.67,1,1.78l.6.07a.37.37,0,0,1,0,.55c-1,0-1.76-.07-2.45-.07s-1.4,0-2.09.07a.36.36,0,0,1,0-.55l.24-.07c.94-.25,1-.25,1-1.78v-5c0-1.53-.09-1.64-1-1.78l-.51-.06c-.15-.11-.13-.49.05-.56.95,0,1.64.07,2.35.07s1.4,0,2.18-.07c.18.07.2.45,0,.56l-.33.06c-.93.18-1,.25-1,1.78v1.36c0,.58.08.58.8.58Z"/>
          <path class="c" d="M67.56,114.93c0-.58,0-.58-.47-.58H66.4c-1.35,0-1.93.14-2.46,1.67a.39.39,0,0,1-.56-.11c.25-1,.49-2.07.6-2.62a.33.33,0,0,1,.4,0c0,.44.33.42,1.22.42h6.18c.82,0,1,0,1.16-.42a.3.3,0,0,1,.4.06,9.38,9.38,0,0,0-.23,2.6.35.35,0,0,1-.55,0c-.16-1.45-.73-1.63-2.07-1.63h-.75c-.43,0-.49,0-.49.58V121c0,1.53.09,1.67,1,1.78l.6.07a.36.36,0,0,1,0,.55c-.91,0-1.76-.07-2.45-.07s-1.51,0-2.44.07a.37.37,0,0,1,0-.55l.6-.07c1-.11,1-.25,1-1.78Z"/>
          <path class="c" d="M79.91,118.82a3.14,3.14,0,0,1-2-2.67c0-1.62,1.24-2.75,3.49-2.75a11.16,11.16,0,0,1,2.07.33,5.84,5.84,0,0,1,.31,2.18c-.07.18-.47.2-.58,0A2.22,2.22,0,0,0,81.15,114c-1.31,0-1.8.76-1.8,1.51s.6,1.29,1.49,1.76l1.38.71a3.17,3.17,0,0,1,1.8,2.82c0,1.74-1.42,2.82-3.62,2.82a4.6,4.6,0,0,1-2.56-.68,4.69,4.69,0,0,1-.47-2.29.34.34,0,0,1,.58,0c.18.8,1.16,2.38,2.65,2.38,1.13,0,1.86-.58,1.86-1.6,0-.71-.29-1.44-1.55-2.09Z"/>
          <path class="c" d="M15.07,133a12.34,12.34,0,0,0,.13,1.58.26.26,0,0,1-.38,0,1.82,1.82,0,0,0-2-1.47,2.47,2.47,0,0,0-2.45,2.79,2.71,2.71,0,0,0,2.58,3A2.22,2.22,0,0,0,15,137.46a.23.23,0,0,1,.38,0,4,4,0,0,1-.48,1.55,7.69,7.69,0,0,1-1.93.3,4.39,4.39,0,0,1-2.52-.66,3,3,0,0,1-1.37-2.55,3.15,3.15,0,0,1,1.21-2.58,4.58,4.58,0,0,1,2.79-.83A10.91,10.91,0,0,1,15.07,133Z"/>
          <path class="c" d="M21,136.9c-.32,0-.37,0-.48.34l-.33.92c-.16.46-.12.52.16.58l.38.07c.12.07.1.33,0,.35-.36,0-.73,0-1.13,0s-.75,0-1,0a.22.22,0,0,1,0-.35l.33-.07c.45-.11.61-.26.89-1l1.38-3.3a4.72,4.72,0,0,0,.37-1.2,1.25,1.25,0,0,0,.6-.55c.12,0,.21,0,.23.07s.29.89.62,1.77L24.24,138c.17.48.3.66.82.76l.23.05c.13.07.1.33-.05.35-.37,0-.7,0-1.19,0s-.93,0-1.29,0a.2.2,0,0,1,0-.35l.28-.05c.38,0,.36-.14.19-.58l-.34-.94c-.12-.33-.16-.34-.49-.34Zm1.14-.46c.37,0,.41,0,.26-.44L22,134.78a2.83,2.83,0,0,0-.21-.52h0a2.91,2.91,0,0,0-.23.49L21,136c-.16.39-.13.42.19.42Z"/>
          <path class="c" d="M32.62,136.6a7.94,7.94,0,0,0,.52.87,5.84,5.84,0,0,0,.59-1l.71-1.38a12,12,0,0,0,1-2.23c.32,0,.61,0,.84,0s.76,0,1.17,0c.13,0,.14.28,0,.35l-.31,0c-.66.08-.69.36-.69,1.2,0,1.52,0,2.74.07,3.6,0,.32,0,.66.48.7l.41.05a.23.23,0,0,1,0,.35l-1.44,0c-.41,0-.86,0-1.26,0-.1-.07-.11-.3,0-.35l.31-.05c.46,0,.46-.17.46-.74v-3.31a1,1,0,0,0,0-.42,11.27,11.27,0,0,0-.62,1.09L34,137c-.12.21-.86,1.71-1,2.16a.22.22,0,0,1-.27,0,16.18,16.18,0,0,0-.85-1.9l-.93-1.81a6.61,6.61,0,0,0-.57-1.12,9.47,9.47,0,0,0-.09,1.44c0,.57,0,1.17,0,1.87s0,1.05.42,1.09l.47.05c.1.05.09.3,0,.35-.38,0-.79,0-1.18,0s-.75,0-1.19,0a.23.23,0,0,1,0-.35l.3-.05c.47-.07.52-.21.59-.71.11-.78.2-3.09.2-4.06,0-.46-.16-.67-.65-.73l-.34,0c-.09-.07-.1-.3,0-.35.39,0,.72,0,1.1,0s.59,0,1,0a4.47,4.47,0,0,0,.74,2Z"/>
          <path class="c" d="M42.51,134.58c0-.94,0-1.15-.34-1.21l-.43-.07c-.13,0-.12-.31,0-.36.8-.05,1.54-.08,2.3-.08a5.13,5.13,0,0,1,1.72.24,1.73,1.73,0,0,1,1.16,1.68,1.65,1.65,0,0,1-1.19,1.63,3.62,3.62,0,0,1-1.31.22.2.2,0,0,1,0-.26,1.51,1.51,0,0,0,1.33-1.64,1.38,1.38,0,0,0-1.56-1.46c-.59,0-.59.09-.59.49v3.86c0,1,.06,1.06.67,1.14l.33.05c.1.07.09.31,0,.35-.61,0-1.08,0-1.52,0s-.91,0-1.41,0c-.11,0-.13-.28,0-.35l.22-.05c.61-.13.67-.15.67-1.14Z"/>
          <path class="c" d="M52.24,136.9c-.33,0-.37,0-.49.34l-.33.92c-.15.46-.11.52.16.58l.39.07c.11.07.1.33,0,.35-.36,0-.73,0-1.14,0s-.74,0-1,0a.22.22,0,0,1,0-.35l.33-.07c.45-.11.6-.26.89-1l1.38-3.3a4.72,4.72,0,0,0,.37-1.2,1.25,1.25,0,0,0,.6-.55c.12,0,.2,0,.23.07s.29.89.62,1.77L55.47,138c.17.48.3.66.82.76l.22.05c.13.07.11.33,0,.35-.37,0-.7,0-1.19,0s-.93,0-1.29,0c-.14,0-.16-.3,0-.35l.29-.05c.37,0,.36-.14.19-.58l-.35-.94c-.11-.33-.16-.34-.49-.34Zm1.13-.46c.38,0,.42,0,.26-.44l-.44-1.22a2.53,2.53,0,0,0-.22-.52h0a3.33,3.33,0,0,0-.22.49L52.2,136c-.16.39-.13.42.19.42Z"/>
          <path class="c" d="M60.9,134.41c0-1-.06-1-.68-1.15l-.27,0c-.1-.07-.09-.31,0-.35.56,0,1,0,1.46,0s.91,0,1.46,0c.12,0,.13.28,0,.35l-.27,0c-.62.1-.67.16-.67,1.15v3.21c0,1,0,1,.67,1.14l.27.05c.1.07.09.31,0,.35-.54,0-1,0-1.46,0s-.9,0-1.46,0c-.12,0-.13-.28,0-.35l.27-.05c.62-.1.68-.15.68-1.14Z"/>
          <path class="c" d="M71.65,137.83c0-.66,0-.74-.66-.86l-.46-.08a.25.25,0,0,1,0-.36c.58,0,1.21,0,1.62,0s.88,0,1.22,0a.25.25,0,0,1,0,.36l-.25.05c-.38.09-.43.17-.43.79v.4c0,.35,0,.56.23.66,0,.05,0,.17,0,.2s-.46.09-.86.16a7.9,7.9,0,0,1-1.43.17,4.14,4.14,0,0,1-3.08-1.06,3.09,3.09,0,0,1-.89-2.18,3.18,3.18,0,0,1,.9-2.25,4.18,4.18,0,0,1,3.17-1.13,8.68,8.68,0,0,1,1.92.29c0,.28,0,.86.13,1.62a.23.23,0,0,1-.37,0,1.89,1.89,0,0,0-2-1.51c-1.51,0-2.44,1.17-2.44,2.84a2.72,2.72,0,0,0,2.83,3c.76,0,.86-.15.86-.72Z"/>
          <path class="c" d="M82.81,135.11c0-1.44-.08-1.79-.61-1.85l-.46,0a.23.23,0,0,1,0-.35c.53,0,.86,0,1.28,0s.73,0,1.19,0a.22.22,0,0,1,0,.35l-.43,0c-.37,0-.48.43-.48,1.85v2.41c0,.28,0,1.44,0,1.66a.27.27,0,0,1-.3.13c-.16-.2-.45-.5-1.33-1.46l-2.18-2.33c-.55-.57-.92-.94-1.11-1.1-.06,0-.06.16-.06.6v1.89c0,1.44.09,1.81.62,1.85l.46.05a.22.22,0,0,1,0,.35c-.53,0-.86,0-1.27,0s-.69,0-1.19,0c-.12,0-.12-.28,0-.35l.43-.05c.37,0,.49-.43.49-1.85v-2.56c0-.48,0-.68-.3-.89a1.7,1.7,0,0,0-.53-.2l-.22,0c-.1-.08-.1-.3,0-.35.55,0,.93,0,1.23,0a3.45,3.45,0,0,0,.58,0,8.2,8.2,0,0,0,1.4,1.76L81.42,136c.32.32,1.15,1.22,1.31,1.33s.08-.23.08-.57Z"/>
        </g>
      </g>
      <path class="c" d="M86.56,139.81a2.06,2.06,0,1,1,2.06,2.11A2,2,0,0,1,86.56,139.81Zm2.06,2.53a2.53,2.53,0,1,0-2.56-2.53A2.53,2.53,0,0,0,88.62,142.34ZM88.09,140h.51l.77,1.26h.49L89,140a.77.77,0,0,0,.76-.81c0-.57-.34-.83-1-.83H87.65v2.92h.44Zm0-.38v-.9h.6c.31,0,.64.07.64.43s-.34.47-.71.47Z"/>
    </g>
  </g>
</svg>
